<?xml version="1.0" encoding="utf-8"?>
<svg version="1.1" xmlns:xlink="http://www.w3.org/1999/xlink" width="19px" height="19px" xmlns="http://www.w3.org/2000/svg">
  <g transform="matrix(1 0 0 1 -23 -339 )">
    <path d="M 7.00624999999999 4.75  C 7.00624999999999 3.3725  8.12250000000003 2.25624999999999  9.5 2.25624999999999  C 10.8775 2.25624999999999  11.99375 3.3725  11.99375 4.75  C 11.99375 6.1275  10.8775 7.24375000000001  9.5 7.24375000000001  C 8.12250000000003 7.24375000000001  7.00624999999999 6.1275  7.00624999999999 4.75  Z M 2.25625 15.4375  C 2.25625 14.6715625  5.96718749999999 12.94375  9.5 12.94375  C 13.0328125 12.94375  16.74375 14.6715625  16.74375 15.4375  L 16.74375 16.74375  L 2.25625 16.74375  L 2.25625 15.4375  Z M 14.25 4.75  C 14.25 2.12562500000001  12.124375 0  9.5 0  C 6.87562500000003 0  4.75 2.12562500000001  4.75 4.75  C 4.75 7.3684375  6.87562500000003 9.5  9.5 9.5  C 12.124375 9.5  14.25 7.3684375  14.25 4.75  Z M 19 15.4375  C 19 12.2728125  12.6646875 10.6875  9.5 10.6875  C 6.33531249999997 10.6875  0 12.2728125  0 15.4375  L 0 19  L 19 19  L 19 15.4375  Z " fill-rule="nonzero" fill="#f2f2f2" stroke="none" transform="matrix(1 0 0 1 23 339 )" />
  </g>
</svg>