<?xml version="1.0" encoding="utf-8"?>
<svg version="1.1" xmlns:xlink="http://www.w3.org/1999/xlink" width="18px" height="18px" xmlns="http://www.w3.org/2000/svg">
  <g transform="matrix(1 0 0 1 -23 -172 )">
    <path d="M 17.1 14.4  L 4.0095 14.4  L 0 17.55  L 0 0.900000000000006  C 0 0.402943725152284  0.402943725152287 0  0.899999999999999 0  L 17.1 0  C 17.5970562748477 0  18 0.402943725152284  18 0.900000000000006  L 18 13.5  C 18 13.9970562748477  17.5970562748477 14.4  17.1 14.4  Z M 2 13.8465  L 3.3867 12.6  L 16 12.6  L 16 2  L 2 2  L 2 13.8465  Z M 8.1 8.09999999999999  L 8.1 6.30000000000001  L 9.9 6.30000000000001  L 9.9 8.09999999999999  L 8.1 8.09999999999999  Z M 4.5 8.09999999999999  L 4.5 6.30000000000001  L 6.3 6.30000000000001  L 6.3 8.09999999999999  L 4.5 8.09999999999999  Z M 11.7 8.09999999999999  L 11.7 6.30000000000001  L 13.5 6.30000000000001  L 13.5 8.09999999999999  L 11.7 8.09999999999999  Z " fill-rule="nonzero" fill="#006eff" stroke="none" transform="matrix(1 0 0 1 23 172 )" />
  </g>
</svg>