<?xml version="1.0" encoding="utf-8"?>
<svg version="1.1" xmlns:xlink="http://www.w3.org/1999/xlink" width="19px" height="18px" xmlns="http://www.w3.org/2000/svg">
  <g transform="matrix(1 0 0 1 -23 -603 )">
    <path d="M 15.5463181818182 13.8181797991217  C 13.9164659986836 15.9947204719591  11.3555078285657 17.2750391039522  8.63636363636364 17.2727241388143  C 3.8665 17.2727241388143  0 13.4062253866133  0 8.63636328958262  C 0 3.86650119255205  3.8665 0  8.63636363636364 0  C 11.3552039473331 -0.00204013672043857  13.9157844210574 1.27824968696575  15.5454545454545 3.45454678004364  L 13.205 3.45454678004364  C 11.9429321991114 2.3416949276658  10.3181311776241 1.72765543791161  8.63549777170321 1.72765543791161  C 4.81971222741772 1.72765543791161  1.7264068626123 4.82095980444387  1.7264068626123 8.63674411729698  C 1.7264068626123 12.4525284301501  4.81971222741772 15.5458327966822  8.63549777170321 15.5458327966822  C 10.3185278248676 15.5458327966822  11.9436838648015 14.9315043628022  13.2058636363636 13.8181797991217  L 15.5463181818182 13.8181797991217  Z M 19 8.63636328958262  L 14.6818181818182 12.0909076292753  L 14.6818181818182 9.49999937450582  L 7.77272727272727 9.49999937450582  L 7.77272727272727 7.77272720465953  L 14.6818181818182 7.77272720465953  L 14.6818181818182 5.18181894988993  L 19 8.63636328958262  Z " fill-rule="nonzero" fill="#f2f2f2" stroke="none" transform="matrix(1 0 0 1 23 603 )" />
  </g>
</svg>