<?xml version="1.0" encoding="utf-8"?>
<svg version="1.1" xmlns:xlink="http://www.w3.org/1999/xlink" width="21px" height="19px" xmlns="http://www.w3.org/2000/svg">
  <g transform="matrix(1 0 0 1 -22 -116 )">
    <path d="M 18.1363636363636 18.05  C 18.1363636363636 18.5746705123393  17.7089990793839 19  17.1818181818182 19  L 3.81818181818181 19  C 3.29100092061606 19  2.86363636363637 18.5746705123393  2.86363636363637 18.05  L 2.86363636363637 9.5  L 0 9.5  L 9.8575909090909 0.581400000000002  C 10.2217676937513 0.25161380952369  10.7782323062487 0.25161380952369  11.1424090909091 0.581400000000002  L 21 9.5  L 18.1363636363636 9.5  L 18.1363636363636 18.05  Z M 11.4545454545454 11.4  L 11.4545454545454 17.1  L 16.2272727272727 17.1  L 16.2272727272727 7.74915000000001  L 10.5 2.56784999999999  L 4.77272727272728 7.74915000000001  L 4.77272727272728 17.1  L 9.54545454545453 17.1  L 9.54545454545453 11.4  L 11.4545454545454 11.4  Z " fill-rule="nonzero" fill="#006eff" stroke="none" transform="matrix(1 0 0 1 22 116 )" />
  </g>
</svg>