<?xml version="1.0" encoding="utf-8"?>
<svg version="1.1" xmlns:xlink="http://www.w3.org/1999/xlink" width="18px" height="20px" xmlns="http://www.w3.org/2000/svg">
  <g transform="matrix(1 0 0 1 -23 -394 )">
    <path d="M 16 6  L 2 6  L 2 18  L 16 18  L 16 6  Z M 2 2  L 2 4  L 16 4  L 16 2  L 2 2  Z M 18 19  C 18 19.5522847498308  17.5522847498308 20  17 20  L 1 20  C 0.447715250169207 20  0 19.5522847498308  0 19  L 0 1  C 0 0.447715250169207  0.447715250169207 0  1 0  L 17 0  C 17.5522847498308 0  18 0.447715250169207  18 1  L 18 19  Z M 4 12  L 4 8  L 8 8  L 8 12  L 4 12  Z M 4 16  L 4 14  L 14 14  L 14 16  L 4 16  Z M 10 11  L 10 9  L 14 9  L 14 11  L 10 11  Z " fill-rule="nonzero" fill="#f2f2f2" stroke="none" transform="matrix(1 0 0 1 23 394 )" />
  </g>
</svg>