<?xml version="1.0" encoding="utf-8"?>
<svg version="1.1" xmlns:xlink="http://www.w3.org/1999/xlink" width="19px" height="20px" xmlns="http://www.w3.org/2000/svg">
  <g transform="matrix(1 0 0 1 -23 -546 )">
    <path d="M 2.72175 17.1095  C 2.16029136075937 16.5365978991962  1.67351518538199 15.8950109401742  1.273 15.2  C 0.871407142187991 14.505535274124  0.559231589299721 13.7630809428171  0.343899999999998 12.9903  C 1.29981948110403 12.5041098017663  1.9018736533563 11.5224478819383  1.9018736533563 10.4499913731638  C 1.9018736533563 9.37830210915917  1.30067189026749 8.39720683302131  0.345799999999997 7.91065  C 0.775234106318813 6.35786222155687  1.59289312483993 4.93995451930733  2.72175 3.7905  C 3.18409860700123 4.09108993278098  3.72372564979408 4.25108527617046  4.27519690206863 4.25108527617046  C 5.84920843908639 4.25108527617046  7.12519690206863 2.97509681318822  7.12519690206863 1.40108527617046  C 7.12519690206863 1.35076371804828  7.12386413410337 1.30045098607315  7.1212 1.2502  C 8.68120412879249 0.847041021060872  10.3181684452389 0.847694891369018  11.87785 1.2521  C 11.8752325693532 1.30190957420509  11.8739231774838 1.3517792774161  11.8739231774838 1.40165757555951  C 11.8739231774838 2.97566911257727  13.149911640466 4.25165757555951  14.7239231774838 4.25165757555951  C 15.2757516902338 4.25165757555951  15.8157126799042 4.09145503817423  16.27825 3.7905  C 16.8283 4.351  17.3166 4.98845  17.727 5.7  C 18.13835 6.41155  18.44615 7.1535  18.6561 7.9097  C 17.700180518896 8.39589019823374  17.0981263466437 9.37755211806174  17.0981263466437 10.4500086268362  C 17.0981263466437 11.5216978908408  17.6993281097325 12.5027931669787  18.6542 12.98935  C 18.2247658936812 14.5421377784431  17.4071068751601 15.9600454806927  16.27825 17.1095  C 15.8159013929988 16.808910067219  15.2762743502059 16.6489147238295  14.7248030979314 16.6489147238295  C 13.1507915609136 16.6489147238295  11.8748030979314 17.9249031868118  11.8748030979314 19.4989147238295  C 11.8748030979314 19.5492362819517  11.8761358658966 19.5995490139269  11.8788 19.6498  C 10.3187958712075 20.0529589789391  8.6818315547611 20.052305108631  7.12215 19.6479  C 7.12476743064679 19.5980904257949  7.12607682251619 19.5482207225839  7.12607682251619 19.4983424244405  C 7.12607682251619 17.9243308874227  5.85008835953396 16.6483424244405  4.27607682251619 16.6483424244405  C 3.72424830976618 16.6483424244405  3.18428732009583 16.8085449618258  2.72175 17.1095  Z M 3.30315 14.8504  C 4.44668106191092 14.6107065697102  5.63844718430441 14.8014973994093  6.65 15.3862  C 7.66234559361618 15.9700970148981  8.42350284615095 16.9071661657965  8.7875 18.0177  C 9.26155 18.06235  9.7375 18.0633  10.21155 18.01865  C 10.5757824655284 16.9079606293461  11.3372964313752 15.9708688099788  12.35 15.38715  C 13.3619564272959 14.8016513477333  14.5544966899919 14.6105065964075  15.69875 14.8504  C 15.97425 14.4628  16.21175 14.04955  16.40935 13.6173  C 15.6298081191266 12.746569021704  15.1991606748329 11.618698967285  15.2 10.45  C 15.2 9.253  15.6465 8.13485  16.40935 7.2827  C 16.2103524734919 6.85059067507909  15.9718377789702 6.43780124376022  15.69685 6.0496  C 14.5533189380891 6.2892934302898  13.3615528156956 6.0985026005907  12.35 5.5138  C 11.3376544063838 4.92990298510189  10.5764971538491 3.99283383420354  10.2125 2.8823  C 9.73845 2.83765  9.2625 2.8367  8.78845 2.88135  C 8.42421753447164 3.99203937065392  7.66270356862479 4.9291311900212  6.65 5.51285  C 5.63804357270411 6.09834865226672  4.44550331000808 6.28949340359247  3.30125 6.0496  C 3.02628726561123 6.4374713142197  2.78837511434021 6.85031887083706  2.59065 7.2827  C 3.37019188087336 8.15343097829597  3.80083932516712 9.28130103271497  3.8 10.45  C 3.8 11.647  3.3535 12.76515  2.59065 13.6173  C 2.78964752650811 14.0494093249209  3.0281622210298 14.4621987562398  3.30315 14.8504  Z M 9.5 13.3  C 7.92598846298224 13.3  6.65 12.0240115370178  6.65 10.45  C 6.65 8.87598846298224  7.92598846298224 7.6  9.5 7.6  C 11.0740115370178 7.6  12.35 8.87598846298224  12.35 10.45  C 12.35 12.0240115370178  11.0740115370178 13.3  9.5 13.3  Z M 9.5 11.4  C 10.0246705123393 11.4  10.45 10.9746705123393  10.45 10.45  C 10.45 9.92532948766075  10.0246705123393 9.5  9.5 9.5  C 8.97532948766074 9.5  8.55 9.92532948766075  8.55 10.45  C 8.55 10.9746705123393  8.97532948766074 11.4  9.5 11.4  Z " fill-rule="nonzero" fill="#f2f2f2" stroke="none" transform="matrix(1 0 0 1 23 546 )" />
  </g>
</svg>