<?xml version="1.0" encoding="utf-8"?>
<svg version="1.1" xmlns:xlink="http://www.w3.org/1999/xlink" width="19px" height="19px" xmlns="http://www.w3.org/2000/svg">
  <g transform="matrix(1 0 0 1 -23 -228 )">
    <path d="M 1.80952380585922 19  L 0 19  C 0 15.0025103821771  3.24060561370958 11.7619047619048  7.23809522343688 11.7619047619048  C 11.2355848331642 11.7619047619048  14.4761904468738 15.0025103821771  14.4761904468738 19  L 12.6666666410145 19  C 12.6666666410145 16.0018827866328  10.2362124307324 13.5714285714286  7.23809522343688 13.5714285714286  C 4.23997801614141 13.5714285714286  1.80952380585922 16.0018827866328  1.80952380585922 19  Z M 12.6666666410145 5.42857142857142  C 12.6666666410145 8.42785714285714  10.2373809316485 10.8571428571429  7.23809522343688 10.8571428571429  C 4.23880951522523 10.8571428571429  1.80952380585922 8.42785714285714  1.80952380585922 5.42857142857142  C 1.80952380585922 2.42928571428573  4.23880951522523 0  7.23809522343688 0  C 10.2373809316485 0  12.6666666410145 2.42928571428573  12.6666666410145 5.42857142857142  Z M 3.61904761171844 5.42857142857142  C 3.61904761171844 7.42809523809524  5.23857141796244 9.04761904761904  7.23809522343688 9.04761904761904  C 9.23761902891133 9.04761904761904  10.8571428351553 7.42809523809524  10.8571428351553 5.42857142857142  C 10.8571428351553 3.42904761904762  9.23761902891133 1.8095238095238  7.23809522343688 1.8095238095238  C 5.23857141796244 1.8095238095238  3.61904761171844 3.42904761904762  3.61904761171844 5.42857142857142  Z M 14.7331428273058 12.3979523809524  C 17.3303296089752 13.5676546666305  19.0002926902196 16.1515648932037  18.9999999615218 19  L 17.1904761556626 19  C 17.1908997833191 16.863557772641  15.9383763523184 14.9254574752846  13.9903333050006 14.0482380952381  L 14.7322380654028 12.3979523809524  Z M 13.6085237819643 3.94114285714286  L 14.1106666380902 2.18319047619048  C 15.9749745297738 2.95165101579664  17.1912252605829 4.76923840714673  17.1904761556626 6.78571428571428  C 17.1912658005523 9.35913487870286  15.2294701300585 11.5084782196487  12.6666666410145 11.742  L 12.6666666410145 9.92071428571427  C 14.2262142688672 9.69735129004394  15.3843753147828 8.36149674215079  15.3843753147828 6.78603495549046  C 15.3843753147828 5.57639191099983  14.6952513394769 4.47242386192642  13.6085237819643 3.94114285714286  Z " fill-rule="nonzero" fill="#006eff" stroke="none" transform="matrix(1 0 0 1 23 228 )" />
  </g>
</svg>